<svg id="Layer_1" data-name="Layer 1" xmlns="http://www.w3.org/2000/svg" xmlns:xlink="http://www.w3.org/1999/xlink" viewBox="0 0 1000 201.86"><defs><style>.cls-1{fill:#a8cf45;}.cls-2{fill:url(#linear-gradient);}.cls-3{fill:url(#linear-gradient-2);}.cls-4{fill:none;}.cls-5{fill:url(#linear-gradient-3);}</style><linearGradient id="linear-gradient" x1="678" y1="342.72" x2="661.82" y2="527.68" gradientUnits="userSpaceOnUse"><stop offset="0.17" stop-color="#fbceab"/><stop offset="1" stop-color="#f58634"/></linearGradient><linearGradient id="linear-gradient-2" x1="809.69" y1="486.07" x2="809.69" y2="486.07" xlink:href="#linear-gradient"/><linearGradient id="linear-gradient-3" x1="1128.74" y1="473.57" x2="1128.74" y2="473.57" xlink:href="#linear-gradient"/></defs><title>Untitled-1</title><path class="cls-1" d="M1183.05,484.66c-6.57,0-13.11,0-19.68,0a774.14,774.14,0,0,0-101.54-34.39c-59.06-15.5-104.47-19.83-153.25-24.25-134.29-12.17-158.21-12.5-240.53-21.34-61.33-6.6-30.3-5.15-182.34-25.22-113.44-15-167.45-20.62-239.29-50A595.49,595.49,0,0,1,184,299.5c.09-7.78.21-12.44.33-12.59,6.57-7.84,32.19,3.54,38.63,6.3,8.21,3.54,68.88,36.6,200.3,61.42,81.2,15.35,300.63,39.85,300.63,39.85s130.42,11.56,230.3,22c71.44,7.44,130.69,14.41,198,50.07C1165.4,473.55,1175.94,480.06,1183.05,484.66Z" transform="translate(-183.05 -284.2)"/><path class="cls-2" d="M1163.37,484.69q-488.58.74-977.2,1.37a3.12,3.12,0,0,1-3.12-3.12s.34-140.14.94-183.44a595.49,595.49,0,0,0,62.43,29.95c71.84,29.42,125.85,35.08,239.29,50,152,20.07,121,18.62,182.34,25.22,82.32,8.84,106.24,9.17,240.53,21.34,48.78,4.42,94.19,8.75,153.25,24.25A774.14,774.14,0,0,1,1163.37,484.69Z" transform="translate(-183.05 -284.2)"/><path class="cls-3" d="M809.69,486.07Z" transform="translate(-183.05 -284.2)"/><path class="cls-4" d="M184,299.5c-.3-.18-.63-.33-.94-.51" transform="translate(-183.05 -284.2)"/><path class="cls-4" d="M1166.58,486.06c-1.06-.46-2.12-.88-3.21-1.37" transform="translate(-183.05 -284.2)"/><path class="cls-5" d="M1128.74,473.57Z" transform="translate(-183.05 -284.2)"/></svg>